<svg width="364" height="145" viewBox="0 0 364 145" fill="none" xmlns="http://www.w3.org/2000/svg">
<rect x="1.54187" y="0.443359" width="361.633" height="143.768" rx="17.6946" fill="#0096C7"/>
<mask id="mask0_0_326" style="mask-type:alpha" maskUnits="userSpaceOnUse" x="0" y="0" width="363" height="145">
<rect x="0.435913" y="0.443359" width="361.633" height="143.768" rx="17.6946" fill="#66328E"/>
</mask>
<g mask="url(#mask0_0_326)">
<circle cx="317.938" cy="-79.1823" r="179.158" fill="#C983DE" fill-opacity="0.75"/>
<circle cx="317.938" cy="-54.8522" r="178.605" stroke="white" stroke-width="1.10591"/>
</g>
<path d="M41.2394 46.5616H37.4571L31.1313 36.9844V46.5616H27.3491V31.0346H31.1313L37.4571 40.656V31.0346H41.2394V46.5616ZM55.6152 40.1915C55.6152 40.5454 55.5931 40.9141 55.5488 41.2974H46.9891C47.048 42.0642 47.2913 42.654 47.719 43.0669C48.1613 43.465 48.6995 43.6641 49.3336 43.6641C50.2773 43.6641 50.9335 43.266 51.3021 42.4697H55.3276C55.1212 43.2807 54.7452 44.0106 54.1996 44.6594C53.6688 45.3082 52.9978 45.8169 52.1868 46.1856C51.3758 46.5542 50.469 46.7385 49.4663 46.7385C48.2572 46.7385 47.1808 46.4805 46.237 45.9644C45.2933 45.4483 44.5561 44.711 44.0252 43.7526C43.4944 42.7941 43.229 41.6735 43.229 40.3906C43.229 39.1077 43.487 37.9871 44.0031 37.0286C44.5339 36.0702 45.2712 35.3329 46.2149 34.8168C47.1586 34.3007 48.2424 34.0427 49.4663 34.0427C50.6607 34.0427 51.7224 34.2933 52.6513 34.7947C53.5803 35.296 54.3028 36.0112 54.8189 36.9402C55.3498 37.8691 55.6152 38.9529 55.6152 40.1915ZM51.7445 39.1962C51.7445 38.5474 51.5233 38.0313 51.0809 37.6479C50.6386 37.2646 50.0856 37.0729 49.4221 37.0729C48.788 37.0729 48.2498 37.2572 47.8074 37.6258C47.3798 37.9945 47.1144 38.5179 47.0112 39.1962H51.7445ZM75.3272 34.2196L71.9873 46.5616H67.807L65.8606 38.5548L63.8478 46.5616H59.6896L56.3276 34.2196H60.1098L61.8572 43.0448L63.9363 34.2196H67.9397L70.0409 43.0005L71.7661 34.2196H75.3272ZM80.8153 38.776C80.8153 37.2424 81.147 35.8785 81.8106 34.6841C82.4741 33.475 83.3957 32.5386 84.5754 31.8751C85.7697 31.1968 87.119 30.8576 88.623 30.8576C90.4662 30.8576 92.044 31.3442 93.3563 32.3174C94.6686 33.2906 95.546 34.6177 95.9884 36.2987H91.8301C91.5205 35.6499 91.0781 35.156 90.503 34.8168C89.9427 34.4777 89.3013 34.3081 88.5788 34.3081C87.4139 34.3081 86.4702 34.7136 85.7476 35.5246C85.0251 36.3356 84.6638 37.4194 84.6638 38.776C84.6638 40.1326 85.0251 41.2163 85.7476 42.0273C86.4702 42.8383 87.4139 43.2439 88.5788 43.2439C89.3013 43.2439 89.9427 43.0743 90.503 42.7351C91.0781 42.396 91.5205 41.902 91.8301 41.2532H95.9884C95.546 42.9342 94.6686 44.2613 93.3563 45.2345C92.044 46.1929 90.4662 46.6722 88.623 46.6722C87.119 46.6722 85.7697 46.3404 84.5754 45.6769C83.3957 44.9986 82.4741 44.0622 81.8106 42.8678C81.147 41.6735 80.8153 40.3095 80.8153 38.776ZM103.923 46.7385C102.713 46.7385 101.622 46.4805 100.649 45.9644C99.6906 45.4483 98.9312 44.711 98.3709 43.7526C97.8253 42.7941 97.5525 41.6735 97.5525 40.3906C97.5525 39.1225 97.8327 38.0092 98.393 37.0507C98.9534 36.0775 99.7201 35.3329 100.693 34.8168C101.667 34.3007 102.758 34.0427 103.967 34.0427C105.176 34.0427 106.267 34.3007 107.24 34.8168C108.214 35.3329 108.98 36.0775 109.541 37.0507C110.101 38.0092 110.381 39.1225 110.381 40.3906C110.381 41.6587 110.094 42.7794 109.518 43.7526C108.958 44.711 108.184 45.4483 107.196 45.9644C106.223 46.4805 105.132 46.7385 103.923 46.7385ZM103.923 43.465C104.645 43.465 105.257 43.1996 105.758 42.6688C106.274 42.1379 106.533 41.3785 106.533 40.3906C106.533 39.4027 106.282 38.6433 105.781 38.1124C105.294 37.5816 104.689 37.3162 103.967 37.3162C103.23 37.3162 102.618 37.5816 102.131 38.1124C101.644 38.6285 101.401 39.3879 101.401 40.3906C101.401 41.3785 101.637 42.1379 102.109 42.6688C102.595 43.1996 103.2 43.465 103.923 43.465ZM124.575 34.2196V46.5616H120.793V44.8806C120.409 45.4262 119.886 45.8685 119.222 46.2077C118.573 46.5321 117.851 46.6943 117.055 46.6943C116.111 46.6943 115.278 46.4879 114.555 46.075C113.833 45.6474 113.272 45.0354 112.874 44.2392C112.476 43.4429 112.277 42.5066 112.277 41.4302V34.2196H116.037V40.9214C116.037 41.7472 116.251 42.3886 116.679 42.8457C117.106 43.3028 117.681 43.5314 118.404 43.5314C119.141 43.5314 119.724 43.3028 120.151 42.8457C120.579 42.3886 120.793 41.7472 120.793 40.9214V34.2196H124.575ZM131.074 36.2766C131.516 35.5983 132.069 35.0675 132.733 34.6841C133.396 34.286 134.133 34.0869 134.944 34.0869V38.0903H133.905C132.961 38.0903 132.253 38.2967 131.782 38.7096C131.31 39.1077 131.074 39.8155 131.074 40.833V46.5616H127.292V34.2196H131.074V36.2766ZM141.773 46.7385C140.697 46.7385 139.738 46.5542 138.898 46.1856C138.057 45.8169 137.394 45.3156 136.907 44.6815C136.42 44.0327 136.148 43.3102 136.089 42.5139H139.827C139.871 42.9416 140.07 43.2881 140.424 43.5535C140.778 43.8189 141.213 43.9516 141.729 43.9516C142.201 43.9516 142.562 43.8632 142.813 43.6862C143.078 43.4945 143.211 43.2512 143.211 42.9563C143.211 42.6024 143.026 42.3444 142.658 42.1822C142.289 42.0052 141.692 41.8135 140.866 41.6071C139.982 41.4007 139.244 41.1869 138.654 40.9657C138.065 40.7297 137.556 40.3685 137.128 39.8819C136.701 39.3805 136.487 38.7096 136.487 37.8691C136.487 37.1613 136.679 36.5199 137.062 35.9448C137.46 35.355 138.035 34.8905 138.787 34.5514C139.554 34.2122 140.461 34.0427 141.508 34.0427C143.056 34.0427 144.272 34.426 145.157 35.1928C146.057 35.9596 146.573 36.977 146.705 38.2451H143.211C143.152 37.8175 142.96 37.4784 142.636 37.2277C142.326 36.977 141.913 36.8517 141.397 36.8517C140.955 36.8517 140.616 36.9402 140.38 37.1171C140.144 37.2793 140.026 37.5079 140.026 37.8028C140.026 38.1567 140.21 38.4221 140.579 38.599C140.962 38.776 141.552 38.9529 142.348 39.1299C143.262 39.3658 144.007 39.6017 144.582 39.8376C145.157 40.0588 145.659 40.4275 146.086 40.9436C146.529 41.4449 146.757 42.1232 146.772 42.9784C146.772 43.701 146.565 44.3498 146.153 44.9248C145.754 45.4852 145.172 45.9275 144.405 46.2519C143.653 46.5763 142.776 46.7385 141.773 46.7385ZM160.72 40.1915C160.72 40.5454 160.698 40.9141 160.654 41.2974H152.094C152.153 42.0642 152.396 42.654 152.824 43.0669C153.266 43.465 153.804 43.6641 154.438 43.6641C155.382 43.6641 156.038 43.266 156.407 42.4697H160.432C160.226 43.2807 159.85 44.0106 159.304 44.6594C158.774 45.3082 158.103 45.8169 157.292 46.1856C156.481 46.5542 155.574 46.7385 154.571 46.7385C153.362 46.7385 152.286 46.4805 151.342 45.9644C150.398 45.4483 149.661 44.711 149.13 43.7526C148.599 42.7941 148.334 41.6735 148.334 40.3906C148.334 39.1077 148.592 37.9871 149.108 37.0286C149.639 36.0702 150.376 35.3329 151.32 34.8168C152.263 34.3007 153.347 34.0427 154.571 34.0427C155.765 34.0427 156.827 34.2933 157.756 34.7947C158.685 35.296 159.408 36.0112 159.924 36.9402C160.455 37.8691 160.72 38.9529 160.72 40.1915ZM156.849 39.1962C156.849 38.5474 156.628 38.0313 156.186 37.6479C155.743 37.2646 155.19 37.0729 154.527 37.0729C153.893 37.0729 153.355 37.2572 152.912 37.6258C152.485 37.9945 152.219 38.5179 152.116 39.1962H156.849ZM167.692 30.4816L167.249 41.0763H164.042L163.6 30.4816H167.692ZM165.701 46.7385C165.038 46.7385 164.492 46.5468 164.064 46.1635C163.652 45.7653 163.445 45.2787 163.445 44.7037C163.445 44.1138 163.652 43.6199 164.064 43.2217C164.492 42.8236 165.038 42.6245 165.701 42.6245C166.35 42.6245 166.881 42.8236 167.294 43.2217C167.721 43.6199 167.935 44.1138 167.935 44.7037C167.935 45.2787 167.721 45.7653 167.294 46.1635C166.881 46.5468 166.35 46.7385 165.701 46.7385Z" fill="white"/>
<path d="M28.8885 64.1902V71.0491C28.8885 71.8645 29.1001 72.4787 29.5233 72.8915C29.9569 73.3044 30.5555 73.5108 31.3193 73.5108C32.0935 73.5108 32.6921 73.3044 33.1153 72.8915C33.5489 72.4787 33.7656 71.8645 33.7656 71.0491V64.1902H35.5306V71.0181C35.5306 71.8955 35.3397 72.6387 34.9578 73.2476C34.5759 73.8566 34.0649 74.3108 33.425 74.6101C32.785 74.9095 32.078 75.0591 31.3039 75.0591C30.5297 75.0591 29.8227 74.9095 29.1827 74.6101C28.5531 74.3108 28.0525 73.8566 27.6809 73.2476C27.3093 72.6387 27.1235 71.8955 27.1235 71.0181V64.1902H28.8885ZM40.9253 75.0901C40.2544 75.0901 39.6506 74.9714 39.1138 74.734C38.5874 74.4863 38.1694 74.156 37.8597 73.7431C37.5501 73.3199 37.3849 72.8503 37.3643 72.3342H39.1912C39.2222 72.6954 39.3925 72.9999 39.7022 73.2476C40.0221 73.485 40.4195 73.6037 40.8943 73.6037C41.3898 73.6037 41.7717 73.5108 42.0401 73.3251C42.3187 73.1289 42.4581 72.8812 42.4581 72.5819C42.4581 72.2619 42.3033 72.0245 41.9936 71.8697C41.6943 71.7148 41.2143 71.5445 40.5537 71.3587C39.9138 71.1833 39.3925 71.013 38.99 70.8478C38.5874 70.6827 38.2365 70.4298 37.9371 70.0892C37.6481 69.7485 37.5036 69.2995 37.5036 68.7422C37.5036 68.288 37.6378 67.8751 37.9062 67.5035C38.1745 67.1216 38.5564 66.8223 39.0519 66.6055C39.5577 66.3888 40.1357 66.2804 40.786 66.2804C41.7562 66.2804 42.5355 66.5281 43.1239 67.0236C43.7225 67.5087 44.0425 68.1745 44.0838 69.0208H42.3187C42.2878 68.6389 42.133 68.3344 41.8543 68.1074C41.5756 67.8803 41.1988 67.7667 40.724 67.7667C40.2595 67.7667 39.9034 67.8545 39.6557 68.03C39.408 68.2054 39.2841 68.4377 39.2841 68.7267C39.2841 68.9538 39.3667 69.1447 39.5319 69.2995C39.697 69.4544 39.8983 69.5782 40.1357 69.6711C40.3731 69.7537 40.724 69.8621 41.1885 69.9963C41.8078 70.1614 42.3136 70.3317 42.7058 70.5072C43.1084 70.6723 43.4541 70.9201 43.7432 71.2504C44.0322 71.5807 44.1818 72.0193 44.1922 72.5664C44.1922 73.0515 44.058 73.485 43.7896 73.867C43.5212 74.2489 43.1393 74.5482 42.6439 74.765C42.1588 74.9817 41.5859 75.0901 40.9253 75.0901ZM53.9181 70.4762C53.9181 70.7962 53.8975 71.0852 53.8562 71.3433H47.3379C47.3896 72.0245 47.6424 72.5716 48.0966 72.9844C48.5508 73.3973 49.1081 73.6037 49.7687 73.6037C50.7183 73.6037 51.3893 73.2064 51.7815 72.4116H53.6859C53.4278 73.196 52.9582 73.8411 52.2769 74.3469C51.606 74.8424 50.77 75.0901 49.7687 75.0901C48.9533 75.0901 48.2205 74.9095 47.5702 74.5482C46.9302 74.1766 46.4245 73.6605 46.0529 72.9999C45.6916 72.329 45.511 71.5549 45.511 70.6775C45.511 69.8001 45.6864 69.0312 46.0374 68.3706C46.3987 67.6997 46.8993 67.1836 47.5392 66.8223C48.1895 66.461 48.9327 66.2804 49.7687 66.2804C50.5738 66.2804 51.2912 66.4559 51.9208 66.8068C52.5505 67.1578 53.0408 67.6532 53.3917 68.2932C53.7426 68.9228 53.9181 69.6505 53.9181 70.4762ZM52.0757 69.9188C52.0653 69.2686 51.8331 68.7473 51.3789 68.3551C50.9248 67.9629 50.3622 67.7667 49.6913 67.7667C49.0823 67.7667 48.5611 67.9629 48.1276 68.3551C47.694 68.737 47.436 69.2582 47.3534 69.9188H52.0757ZM57.4201 67.6584C57.6782 67.2248 58.0188 66.8894 58.442 66.652C58.8755 66.4043 59.3864 66.2804 59.9748 66.2804V68.1074H59.5258C58.8342 68.1074 58.3078 68.2828 57.9465 68.6338C57.5956 68.9847 57.4201 69.5937 57.4201 70.4607V74.9507H55.6551V66.4197H57.4201V67.6584ZM67.3841 65.6146V68.7731H71.1V70.213H67.3841V73.5108H71.5645V74.9507H65.6191V64.1747H71.5645V65.6146H67.3841ZM77.3924 70.6311L80.1483 74.9507H78.1511L76.3086 72.0555L74.5745 74.9507H72.7321L75.488 70.7549L72.7321 66.4197H74.7294L76.5718 69.315L78.3059 66.4197H80.1483L77.3924 70.6311ZM83.2298 67.6738C83.5291 67.2816 83.9368 66.9513 84.4529 66.683C84.969 66.4146 85.5522 66.2804 86.2025 66.2804C86.9456 66.2804 87.6217 66.4662 88.2307 66.8378C88.85 67.199 89.3351 67.71 89.6861 68.3706C90.037 69.0312 90.2125 69.7898 90.2125 70.6465C90.2125 71.5032 90.037 72.2722 89.6861 72.9535C89.3351 73.6244 88.85 74.1508 88.2307 74.5327C87.6217 74.9043 86.9456 75.0901 86.2025 75.0901C85.5522 75.0901 84.9742 74.9611 84.4684 74.703C83.9626 74.4347 83.5497 74.1044 83.2298 73.7121V79.0072H81.4647V66.4197H83.2298V67.6738ZM88.4165 70.6465C88.4165 70.0582 88.2926 69.5524 88.0449 69.1292C87.8075 68.6957 87.4875 68.3706 87.085 68.1538C86.6927 67.9267 86.2695 67.8132 85.8154 67.8132C85.3715 67.8132 84.9483 67.9267 84.5458 68.1538C84.1536 68.3809 83.8336 68.7112 83.5859 69.1447C83.3485 69.5782 83.2298 70.0892 83.2298 70.6775C83.2298 71.2658 83.3485 71.7819 83.5859 72.2258C83.8336 72.6593 84.1536 72.9896 84.5458 73.2167C84.9483 73.4438 85.3715 73.5573 85.8154 73.5573C86.2695 73.5573 86.6927 73.4438 87.085 73.2167C87.4875 72.9793 87.8075 72.6387 88.0449 72.1948C88.2926 71.751 88.4165 71.2349 88.4165 70.6465ZM99.7767 70.4762C99.7767 70.7962 99.7561 71.0852 99.7148 71.3433H93.1965C93.2482 72.0245 93.501 72.5716 93.9552 72.9844C94.4094 73.3973 94.9667 73.6037 95.6273 73.6037C96.5769 73.6037 97.2479 73.2064 97.6401 72.4116H99.5445C99.2864 73.196 98.8168 73.8411 98.1355 74.3469C97.4646 74.8424 96.6286 75.0901 95.6273 75.0901C94.8119 75.0901 94.0791 74.9095 93.4288 74.5482C92.7888 74.1766 92.2831 73.6605 91.9115 72.9999C91.5502 72.329 91.3696 71.5549 91.3696 70.6775C91.3696 69.8001 91.545 69.0312 91.896 68.3706C92.2573 67.6997 92.7579 67.1836 93.3978 66.8223C94.0481 66.461 94.7913 66.2804 95.6273 66.2804C96.4324 66.2804 97.1498 66.4559 97.7794 66.8068C98.4091 67.1578 98.8994 67.6532 99.2503 68.2932C99.6012 68.9228 99.7767 69.6505 99.7767 70.4762ZM97.9343 69.9188C97.9239 69.2686 97.6917 68.7473 97.2375 68.3551C96.7834 67.9629 96.2208 67.7667 95.5499 67.7667C94.9409 67.7667 94.4197 67.9629 93.9862 68.3551C93.5526 68.737 93.2946 69.2582 93.212 69.9188H97.9343ZM103.279 67.6584C103.537 67.2248 103.877 66.8894 104.301 66.652C104.734 66.4043 105.245 66.2804 105.833 66.2804V68.1074H105.384C104.693 68.1074 104.166 68.2828 103.805 68.6338C103.454 68.9847 103.279 69.5937 103.279 70.4607V74.9507H101.514V66.4197H103.279V67.6584ZM108.354 65.2895C108.034 65.2895 107.765 65.1811 107.549 64.9644C107.332 64.7476 107.224 64.4792 107.224 64.1593C107.224 63.8393 107.332 63.5709 107.549 63.3542C107.765 63.1374 108.034 63.029 108.354 63.029C108.663 63.029 108.927 63.1374 109.143 63.3542C109.36 63.5709 109.469 63.8393 109.469 64.1593C109.469 64.4792 109.36 64.7476 109.143 64.9644C108.927 65.1811 108.663 65.2895 108.354 65.2895ZM109.221 66.4197V74.9507H107.456V66.4197H109.221ZM119.357 70.4762C119.357 70.7962 119.336 71.0852 119.295 71.3433H112.777C112.828 72.0245 113.081 72.5716 113.535 72.9844C113.99 73.3973 114.547 73.6037 115.208 73.6037C116.157 73.6037 116.828 73.2064 117.22 72.4116H119.125C118.867 73.196 118.397 73.8411 117.716 74.3469C117.045 74.8424 116.209 75.0901 115.208 75.0901C114.392 75.0901 113.659 74.9095 113.009 74.5482C112.369 74.1766 111.863 73.6605 111.492 72.9999C111.13 72.329 110.95 71.5549 110.95 70.6775C110.95 69.8001 111.125 69.0312 111.476 68.3706C111.838 67.6997 112.338 67.1836 112.978 66.8223C113.628 66.461 114.372 66.2804 115.208 66.2804C116.013 66.2804 116.73 66.4559 117.36 66.8068C117.989 67.1578 118.48 67.6532 118.831 68.2932C119.181 68.9228 119.357 69.6505 119.357 70.4762ZM117.515 69.9188C117.504 69.2686 117.272 68.7473 116.818 68.3551C116.364 67.9629 115.801 67.7667 115.13 67.7667C114.521 67.7667 114 67.9629 113.566 68.3551C113.133 68.737 112.875 69.2582 112.792 69.9188H117.515ZM125.398 66.2804C126.069 66.2804 126.668 66.4197 127.194 66.6984C127.731 66.9771 128.149 67.39 128.448 67.9371C128.748 68.4841 128.897 69.1447 128.897 69.9188V74.9507H127.148V70.1821C127.148 69.4182 126.957 68.8351 126.575 68.4325C126.193 68.0196 125.672 67.8132 125.011 67.8132C124.35 67.8132 123.824 68.0196 123.432 68.4325C123.05 68.8351 122.859 69.4182 122.859 70.1821V74.9507H121.094V66.4197H122.859V67.3952C123.148 67.0442 123.514 66.7707 123.958 66.5746C124.412 66.3785 124.892 66.2804 125.398 66.2804ZM130.56 70.6775C130.56 69.8001 130.736 69.0312 131.087 68.3706C131.448 67.6997 131.943 67.1836 132.573 66.8223C133.203 66.461 133.925 66.2804 134.741 66.2804C135.773 66.2804 136.624 66.5281 137.295 67.0236C137.977 67.5087 138.436 68.2054 138.673 69.1137H136.769C136.614 68.6905 136.366 68.3602 136.026 68.1228C135.685 67.8854 135.257 67.7667 134.741 67.7667C134.018 67.7667 133.44 68.0248 133.007 68.5409C132.583 69.0467 132.372 69.7589 132.372 70.6775C132.372 71.5961 132.583 72.3135 133.007 72.8296C133.44 73.3457 134.018 73.6037 134.741 73.6037C135.763 73.6037 136.439 73.1547 136.769 72.2567H138.673C138.426 73.1238 137.961 73.8153 137.28 74.3314C136.599 74.8372 135.752 75.0901 134.741 75.0901C133.925 75.0901 133.203 74.9095 132.573 74.5482C131.943 74.1766 131.448 73.6605 131.087 72.9999C130.736 72.329 130.56 71.5549 130.56 70.6775ZM148.251 70.4762C148.251 70.7962 148.23 71.0852 148.189 71.3433H141.671C141.722 72.0245 141.975 72.5716 142.43 72.9844C142.884 73.3973 143.441 73.6037 144.102 73.6037C145.051 73.6037 145.722 73.2064 146.114 72.4116H148.019C147.761 73.196 147.291 73.8411 146.61 74.3469C145.939 74.8424 145.103 75.0901 144.102 75.0901C143.286 75.0901 142.553 74.9095 141.903 74.5482C141.263 74.1766 140.757 73.6605 140.386 72.9999C140.025 72.329 139.844 71.5549 139.844 70.6775C139.844 69.8001 140.019 69.0312 140.37 68.3706C140.732 67.6997 141.232 67.1836 141.872 66.8223C142.522 66.461 143.266 66.2804 144.102 66.2804C144.907 66.2804 145.624 66.4559 146.254 66.8068C146.883 67.1578 147.374 67.6532 147.725 68.2932C148.076 68.9228 148.251 69.6505 148.251 70.4762ZM146.409 69.9188C146.398 69.2686 146.166 68.7473 145.712 68.3551C145.258 67.9629 144.695 67.7667 144.024 67.7667C143.415 67.7667 142.894 67.9629 142.461 68.3551C142.027 68.737 141.769 69.2582 141.686 69.9188H146.409ZM153.422 69.5473C153.422 68.4944 153.664 67.55 154.149 66.7139C154.645 65.8778 155.31 65.2276 156.147 64.7631C156.993 64.2883 157.917 64.0509 158.918 64.0509C160.064 64.0509 161.08 64.3347 161.968 64.9024C162.866 65.4598 163.516 66.2546 163.919 67.2868H161.798C161.519 66.7191 161.132 66.2959 160.637 66.0172C160.141 65.7385 159.568 65.5992 158.918 65.5992C158.206 65.5992 157.571 65.7591 157.014 66.0791C156.456 66.3991 156.018 66.8584 155.698 67.4571C155.388 68.0558 155.233 68.7525 155.233 69.5473C155.233 70.342 155.388 71.0388 155.698 71.6374C156.018 72.2361 156.456 72.7006 157.014 73.0309C157.571 73.3509 158.206 73.5108 158.918 73.5108C159.568 73.5108 160.141 73.3715 160.637 73.0928C161.132 72.8141 161.519 72.3909 161.798 71.8232H163.919C163.516 72.8554 162.866 73.6502 161.968 74.2076C161.08 74.765 160.064 75.0436 158.918 75.0436C157.906 75.0436 156.983 74.8114 156.147 74.3469C155.31 73.8721 154.645 73.2167 154.149 72.3806C153.664 71.5445 153.422 70.6001 153.422 69.5473ZM167.75 63.4935V74.9507H165.985V63.4935H167.75ZM169.479 70.6465C169.479 69.7898 169.654 69.0312 170.005 68.3706C170.367 67.71 170.852 67.199 171.461 66.8378C172.08 66.4662 172.761 66.2804 173.504 66.2804C174.175 66.2804 174.759 66.4146 175.254 66.683C175.76 66.941 176.162 67.2661 176.462 67.6584V66.4197H178.242V74.9507H176.462V73.6812C176.162 74.0837 175.755 74.4192 175.238 74.6875C174.722 74.9559 174.134 75.0901 173.473 75.0901C172.741 75.0901 172.07 74.9043 171.461 74.5327C170.852 74.1508 170.367 73.6244 170.005 72.9535C169.654 72.2722 169.479 71.5032 169.479 70.6465ZM176.462 70.6775C176.462 70.0892 176.338 69.5782 176.09 69.1447C175.853 68.7112 175.538 68.3809 175.146 68.1538C174.753 67.9267 174.33 67.8132 173.876 67.8132C173.422 67.8132 172.999 67.9267 172.606 68.1538C172.214 68.3706 171.894 68.6957 171.646 69.1292C171.409 69.5524 171.29 70.0582 171.29 70.6465C171.29 71.2349 171.409 71.751 171.646 72.1948C171.894 72.6387 172.214 72.9793 172.606 73.2167C173.009 73.4438 173.432 73.5573 173.876 73.5573C174.33 73.5573 174.753 73.4438 175.146 73.2167C175.538 72.9896 175.853 72.6593 176.09 72.2258C176.338 71.7819 176.462 71.2658 176.462 70.6775ZM183.657 75.0901C182.986 75.0901 182.382 74.9714 181.846 74.734C181.319 74.4863 180.901 74.156 180.591 73.7431C180.282 73.3199 180.117 72.8503 180.096 72.3342H181.923C181.954 72.6954 182.124 72.9999 182.434 73.2476C182.754 73.485 183.151 73.6037 183.626 73.6037C184.121 73.6037 184.503 73.5108 184.772 73.3251C185.05 73.1289 185.19 72.8812 185.19 72.5819C185.19 72.2619 185.035 72.0245 184.725 71.8697C184.426 71.7148 183.946 71.5445 183.285 71.3587C182.645 71.1833 182.124 71.013 181.722 70.8478C181.319 70.6827 180.968 70.4298 180.669 70.0892C180.38 69.7485 180.235 69.2995 180.235 68.7422C180.235 68.288 180.369 67.8751 180.638 67.5035C180.906 67.1216 181.288 66.8223 181.784 66.6055C182.289 66.3888 182.867 66.2804 183.518 66.2804C184.488 66.2804 185.267 66.5281 185.856 67.0236C186.454 67.5087 186.774 68.1745 186.815 69.0208H185.05C185.019 68.6389 184.865 68.3344 184.586 68.1074C184.307 67.8803 183.931 67.7667 183.456 67.7667C182.991 67.7667 182.635 67.8545 182.387 68.03C182.14 68.2054 182.016 68.4377 182.016 68.7267C182.016 68.9538 182.098 69.1447 182.264 69.2995C182.429 69.4544 182.63 69.5782 182.867 69.6711C183.105 69.7537 183.456 69.8621 183.92 69.9963C184.54 70.1614 185.045 70.3317 185.438 70.5072C185.84 70.6723 186.186 70.9201 186.475 71.2504C186.764 71.5807 186.914 72.0193 186.924 72.5664C186.924 73.0515 186.79 73.485 186.521 73.867C186.253 74.2489 185.871 74.5482 185.376 74.765C184.89 74.9817 184.318 75.0901 183.657 75.0901ZM191.928 75.0901C191.257 75.0901 190.653 74.9714 190.116 74.734C189.59 74.4863 189.172 74.156 188.862 73.7431C188.552 73.3199 188.387 72.8503 188.367 72.3342H190.193C190.224 72.6954 190.395 72.9999 190.704 73.2476C191.024 73.485 191.422 73.6037 191.897 73.6037C192.392 73.6037 192.774 73.5108 193.042 73.3251C193.321 73.1289 193.46 72.8812 193.46 72.5819C193.46 72.2619 193.306 72.0245 192.996 71.8697C192.697 71.7148 192.217 71.5445 191.556 71.3587C190.916 71.1833 190.395 71.013 189.992 70.8478C189.59 70.6827 189.239 70.4298 188.939 70.0892C188.65 69.7485 188.506 69.2995 188.506 68.7422C188.506 68.288 188.64 67.8751 188.908 67.5035C189.177 67.1216 189.559 66.8223 190.054 66.6055C190.56 66.3888 191.138 66.2804 191.788 66.2804C192.758 66.2804 193.538 66.5281 194.126 67.0236C194.725 67.5087 195.045 68.1745 195.086 69.0208H193.321C193.29 68.6389 193.135 68.3344 192.857 68.1074C192.578 67.8803 192.201 67.7667 191.726 67.7667C191.262 67.7667 190.906 67.8545 190.658 68.03C190.41 68.2054 190.286 68.4377 190.286 68.7267C190.286 68.9538 190.369 69.1447 190.534 69.2995C190.699 69.4544 190.901 69.5782 191.138 69.6711C191.375 69.7537 191.726 69.8621 192.191 69.9963C192.81 70.1614 193.316 70.3317 193.708 70.5072C194.111 70.6723 194.456 70.9201 194.745 71.2504C195.034 71.5807 195.184 72.0193 195.194 72.5664C195.194 73.0515 195.06 73.485 194.792 73.867C194.524 74.2489 194.142 74.5482 193.646 74.765C193.161 74.9817 192.588 75.0901 191.928 75.0901Z" fill="white"/>
<rect x="28" y="93.5" width="75.6946" height="26.8473" rx="5" fill="#C983DE" fill-opacity="0.75"/>
<path d="M45.1993 102.548L42.1273 110.924H40.0873L37.0153 102.548H38.8153L41.1193 109.208L43.4113 102.548H45.1993ZM47.0585 103.484C46.7625 103.484 46.5145 103.392 46.3145 103.208C46.1225 103.016 46.0265 102.78 46.0265 102.5C46.0265 102.22 46.1225 101.988 46.3145 101.804C46.5145 101.612 46.7625 101.516 47.0585 101.516C47.3545 101.516 47.5985 101.612 47.7905 101.804C47.9905 101.988 48.0905 102.22 48.0905 102.5C48.0905 102.78 47.9905 103.016 47.7905 103.208C47.5985 103.392 47.3545 103.484 47.0585 103.484ZM47.8865 104.276V110.924H46.2065V104.276H47.8865ZM55.7264 107.456C55.7264 107.696 55.7104 107.912 55.6784 108.104H50.8184C50.8584 108.584 51.0264 108.96 51.3224 109.232C51.6184 109.504 51.9824 109.64 52.4144 109.64C53.0384 109.64 53.4824 109.372 53.7464 108.836H55.5584C55.3664 109.476 54.9984 110.004 54.4544 110.42C53.9104 110.828 53.2424 111.032 52.4504 111.032C51.8104 111.032 51.2344 110.892 50.7224 110.612C50.2184 110.324 49.8224 109.92 49.5344 109.4C49.2544 108.88 49.1144 108.28 49.1144 107.6C49.1144 106.912 49.2544 106.308 49.5344 105.788C49.8144 105.268 50.2064 104.868 50.7104 104.588C51.2144 104.308 51.7944 104.168 52.4504 104.168C53.0824 104.168 53.6464 104.304 54.1424 104.576C54.6464 104.848 55.0344 105.236 55.3064 105.74C55.5864 106.236 55.7264 106.808 55.7264 107.456ZM53.9864 106.976C53.9784 106.544 53.8224 106.2 53.5184 105.944C53.2144 105.68 52.8424 105.548 52.4024 105.548C51.9864 105.548 51.6344 105.676 51.3464 105.932C51.0664 106.18 50.8944 106.528 50.8304 106.976H53.9864ZM66.1686 104.276L64.2246 110.924H62.4126L61.2006 106.28L59.9886 110.924H58.1646L56.2086 104.276H57.9126L59.0886 109.34L60.3606 104.276H62.1366L63.3846 109.328L64.5606 104.276H66.1686ZM73.621 104.18C74.413 104.18 75.053 104.432 75.541 104.936C76.029 105.432 76.273 106.128 76.273 107.024V110.924H74.593V107.252C74.593 106.724 74.461 106.32 74.197 106.04C73.933 105.752 73.573 105.608 73.117 105.608C72.653 105.608 72.285 105.752 72.013 106.04C71.749 106.32 71.617 106.724 71.617 107.252V110.924H69.937V104.276H71.617V105.104C71.841 104.816 72.125 104.592 72.469 104.432C72.821 104.264 73.205 104.18 73.621 104.18ZM80.8226 111.032C80.1826 111.032 79.6066 110.892 79.0946 110.612C78.5826 110.324 78.1786 109.92 77.8826 109.4C77.5946 108.88 77.4506 108.28 77.4506 107.6C77.4506 106.92 77.5986 106.32 77.8946 105.8C78.1986 105.28 78.6106 104.88 79.1306 104.6C79.6506 104.312 80.2306 104.168 80.8706 104.168C81.5106 104.168 82.0906 104.312 82.6106 104.6C83.1306 104.88 83.5386 105.28 83.8346 105.8C84.1386 106.32 84.2906 106.92 84.2906 107.6C84.2906 108.28 84.1346 108.88 83.8226 109.4C83.5186 109.92 83.1026 110.324 82.5746 110.612C82.0546 110.892 81.4706 111.032 80.8226 111.032ZM80.8226 109.568C81.1266 109.568 81.4106 109.496 81.6746 109.352C81.9466 109.2 82.1626 108.976 82.3226 108.68C82.4826 108.384 82.5626 108.024 82.5626 107.6C82.5626 106.968 82.3946 106.484 82.0586 106.148C81.7306 105.804 81.3266 105.632 80.8466 105.632C80.3666 105.632 79.9626 105.804 79.6346 106.148C79.3146 106.484 79.1546 106.968 79.1546 107.6C79.1546 108.232 79.3106 108.72 79.6226 109.064C79.9426 109.4 80.3426 109.568 80.8226 109.568ZM94.7389 104.276L92.7949 110.924H90.9829L89.7709 106.28L88.5589 110.924H86.7349L84.7789 104.276H86.4829L87.6589 109.34L88.9309 104.276H90.7069L91.9549 109.328L93.1309 104.276H94.7389Z" fill="white"/>
<g clip-path="url(#clip0_0_326)">
<path d="M267.215 50.5254H280.654C283.941 50.5252 287.196 51.1674 290.233 52.4152C293.27 53.6631 296.029 55.4923 298.354 57.7982C300.678 60.1041 302.522 62.8417 303.78 65.8547C305.038 68.8676 305.685 72.0969 305.685 75.3581V109.005H242.186V75.3581C242.186 68.772 244.823 62.4557 249.517 57.7987C254.211 53.1417 260.577 50.5254 267.215 50.5254Z" fill="#2F2E41"/>
<path opacity="0.2" d="M268.685 51.8787H279.185C282.472 51.8785 285.726 52.5207 288.763 53.7686C291.8 55.0165 294.559 56.8456 296.884 59.1515C299.208 61.4575 301.052 64.1951 302.31 67.208C303.568 70.221 304.215 73.4502 304.215 76.7114V107.65H243.656V76.7114C243.656 70.1254 246.293 63.8091 250.987 59.1521C255.681 54.495 262.047 51.8787 268.685 51.8787Z" fill="black"/>
<path d="M348.532 113.758V116.304C345.159 117.949 341.449 118.798 337.69 118.783H226.998C226.116 118.783 225.242 118.748 224.375 118.678C221.297 118.438 218.272 117.743 215.4 116.616C214.84 116.396 214.29 116.16 213.751 115.907C213.494 115.788 213.24 115.665 212.988 115.538C212.831 115.46 212.674 115.378 212.518 115.296C211.573 114.798 210.657 114.247 209.775 113.645V106.73C209.775 105.612 210.223 104.54 211.019 103.75C211.816 102.959 212.896 102.515 214.023 102.515H336.204C337.232 102.517 338.224 102.889 338.997 103.561L347.081 110.59C347.537 110.985 347.902 111.472 348.152 112.018C348.402 112.565 348.532 113.158 348.532 113.758Z" fill="#2F2E41"/>
<path d="M266.023 58.8102C262.818 59.0202 259.625 59.3605 256.444 59.831C255.54 59.9652 254.623 60.114 253.798 60.5106C253.157 60.8436 252.567 61.2638 252.043 61.759C249.682 63.8577 247.781 66.4156 246.457 69.2738C245.639 71.0457 245.051 72.9197 244.279 74.7062C241.532 81.0864 236.549 86.3044 233.649 92.6176C233.021 93.984 232.492 95.4103 232.282 96.8963C232.064 98.4334 232.311 100.227 233.584 101.126C234.172 101.538 234.887 101.709 235.586 101.855C244.394 103.79 253.304 105.234 262.275 106.179C261.303 105.248 260.978 103.806 261.106 102.473C261.234 101.14 261.762 99.8801 262.282 98.6449C257.205 97.5336 252.141 96.367 247.09 95.1449C246.335 94.9626 245.43 94.6199 245.337 93.8557C245.29 93.4663 245.484 93.0915 245.676 92.7488C247.83 88.8783 250.413 85.2586 253.378 81.9571C253.378 86.0492 253.173 90.6707 253.173 94.7642H300.812C300.239 92.4286 299.903 90.0421 299.807 87.6402C299.585 79.8002 302.245 72.0199 301.555 64.1959C301.49 63.474 301.39 62.7302 301.009 62.1119C300.352 61.0444 299.041 60.6025 297.836 60.2379C293.214 58.8437 288.496 57.4335 283.666 57.5429C282.23 57.5764 280.8 57.7427 279.373 57.9104C275.023 58.4194 270.393 58.5229 266.023 58.8102Z" fill="#D9D9D9"/>
<path d="M243.712 105.843L247.181 116.858C247.203 116.928 247.247 116.989 247.306 117.032C247.366 117.075 247.438 117.099 247.511 117.099H262.397L258.869 104.265L244.014 105.399C243.963 105.403 243.913 105.418 243.868 105.444C243.823 105.471 243.785 105.506 243.756 105.549C243.727 105.592 243.708 105.64 243.7 105.691C243.692 105.742 243.696 105.794 243.712 105.843Z" fill="#656478"/>
<path d="M269.158 63.5469C268.512 63.9159 267.758 64.0486 267.023 64.1755L262.279 64.9922C261.356 65.1511 260.385 65.3319 259.673 65.9372C258.218 67.1724 258.533 69.4459 258.974 71.2951L259.856 75.0051C260.52 77.7935 261.199 80.6154 262.562 83.1413C264.941 87.5498 269.307 90.7247 274.108 92.2545C275.823 92.8013 277.635 93.1572 279.426 92.9618C282.933 92.5797 285.933 90.099 287.782 87.1167C289.631 84.1344 290.511 80.6752 291.318 77.2656C292.093 74.0018 292.829 70.6914 292.779 67.3372C292.765 66.293 292.659 65.2022 292.097 64.3169C290.867 62.373 288.079 62.2271 285.793 62.5859C285.437 62.6428 285.068 62.704 284.726 62.5975C283.697 62.2796 283.674 60.8782 283.233 59.9054C282.399 58.0708 279.927 57.7456 277.906 57.9119C275.885 58.0781 272.738 58.2925 270.977 59.4286C269.283 60.515 271.144 62.4109 269.158 63.5469Z" fill="#FBBEBE"/>
<path opacity="0.1" d="M269.158 63.5469C268.512 63.9159 267.758 64.0486 267.023 64.1755L262.279 64.9922C261.356 65.1511 260.385 65.3319 259.673 65.9372C258.218 67.1724 258.533 69.4459 258.974 71.2951L259.856 75.0051C260.52 77.7935 261.199 80.6154 262.562 83.1413C264.941 87.5498 269.307 90.7247 274.108 92.2545C275.823 92.8013 277.635 93.1572 279.426 92.9618C282.933 92.5797 285.933 90.099 287.782 87.1167C289.631 84.1344 290.511 80.6752 291.318 77.2656C292.093 74.0018 292.829 70.6914 292.779 67.3372C292.765 66.293 292.659 65.2022 292.097 64.3169C290.867 62.373 288.079 62.2271 285.793 62.5859C285.437 62.6428 285.068 62.704 284.726 62.5975C283.697 62.2796 283.674 60.8782 283.233 59.9054C282.399 58.0708 279.927 57.7456 277.906 57.9119C275.885 58.0781 272.738 58.2925 270.977 59.4286C269.283 60.515 271.144 62.4109 269.158 63.5469Z" fill="black"/>
<path d="M265.232 67.7266C265.95 69.2199 266.488 70.8037 267.355 72.2168C268.044 73.3397 268.928 74.33 269.807 75.3143C272.084 77.8694 274.39 80.4448 277.208 82.3902C278.374 76.4426 281.193 70.9369 285.346 66.4943C286.56 65.2007 288.08 63.9261 289.862 63.9742C290.967 64.0049 291.987 64.5488 292.907 65.154C293.936 65.8293 294.909 66.6124 295.649 67.5851C296.817 69.1339 297.321 71.0953 297.413 73.0277C297.504 74.96 297.201 76.8879 296.901 78.7983L295.358 88.6728C295.268 89.2445 295.143 89.8759 294.673 90.2186C294.406 90.3865 294.104 90.4941 293.791 90.5336C288.18 91.6172 282.398 90.9143 276.681 90.8588C270.361 90.7991 263.865 91.5136 257.879 89.5186C257.566 89.4136 257.241 89.2926 257.029 89.0432C256.89 88.8551 256.79 88.6414 256.735 88.4147C255.34 83.9346 256.459 79.1206 257.286 74.505C257.941 70.8472 258.408 67.1586 258.684 63.4536C258.709 63.1197 262.407 63.8576 262.82 64.0938C263.945 64.7545 264.691 66.6007 265.232 67.7266Z" fill="#D9D9D9"/>
<path d="M274.891 65.1818C281.71 65.1818 287.238 59.6972 287.238 52.9317C287.238 46.1661 281.71 40.6816 274.891 40.6816C268.072 40.6816 262.544 46.1661 262.544 52.9317C262.544 59.6972 268.072 65.1818 274.891 65.1818Z" fill="#FBBEBE"/>
<path d="M269.876 28.8937C266.582 29.3079 263.026 29.8547 260.698 32.2027C259.396 33.5152 258.633 35.2652 258.005 36.9977C257.032 39.6957 256.307 42.5394 256.535 45.4022C256.738 47.963 257.693 50.5822 256.92 53.0351C256.565 54.1639 255.866 55.1497 255.324 56.2012C254.319 58.1539 253.845 60.3429 253.672 62.529C253.551 64.0325 253.575 65.5798 254.073 67.0046C254.604 68.5213 255.638 69.8119 256.294 71.279C257.264 73.4461 257.361 75.8845 257.436 78.2543C257.511 80.6241 257.574 82.9779 257.63 85.3389C257.665 86.8235 257.668 88.4131 256.841 89.6512C259.897 88.4364 262.995 87.1968 265.61 85.2135C268.225 83.2302 270.342 80.3703 270.68 77.1212C270.953 74.4874 270.057 71.8915 269.283 69.3569C267.373 63.086 266.138 56.401 267.528 49.9974C268.03 47.6918 269.248 45.1178 271.587 44.6934C273.014 44.4353 274.438 45.0813 275.724 45.7492C278.764 47.3272 281.898 49.3689 283.03 52.5816C284.059 55.4866 283.193 58.7227 281.854 61.4964C280.515 64.2702 278.692 66.8209 277.651 69.7201C276.054 74.168 276.503 79.3758 279.158 83.2943C281.813 87.2129 286.718 89.6235 291.435 88.9906C291.066 87.4098 289.909 86.1323 289.289 84.6302C288.161 81.9016 288.921 78.7632 290.134 76.0711C291.346 73.379 293.001 70.8692 293.76 68.0109C294.295 65.9984 294.36 63.8954 294.357 61.8144C294.357 58.5389 294.194 55.262 293.876 52.0012C293.559 48.7403 293.073 45.4386 292.027 42.3017C291.186 39.7861 289.962 37.3536 288.13 35.4242C286.181 33.3694 283.644 31.9766 281.153 30.6116C279.662 29.7979 278.139 28.9739 276.467 28.6691C275.144 28.4285 273.753 28.0858 272.404 28.0639C271.487 28.0508 270.523 28.2477 269.876 28.8937Z" fill="black"/>
<path d="M293.115 44.705L285.171 43.1759C284.94 43.1314 284.716 43.2812 284.671 43.5105L280.866 62.9723C280.821 63.2016 280.972 63.4236 281.203 63.4681L289.147 64.9972C289.378 65.0416 289.601 64.8918 289.646 64.6625L293.452 45.2007C293.497 44.9714 293.346 44.7495 293.115 44.705Z" fill="#656478"/>
<path d="M293.715 44.8206L285.771 43.2915C285.54 43.247 285.317 43.3968 285.272 43.6261L281.466 63.0879C281.421 63.3172 281.572 63.5392 281.803 63.5837L289.747 65.1128C289.978 65.1572 290.202 65.0074 290.247 64.7781L294.052 45.3163C294.097 45.087 293.946 44.8651 293.715 44.8206Z" fill="#3F3D56"/>
<path d="M289.473 48.5644C289.629 47.7698 289.486 47.074 289.156 47.0104C288.825 46.9467 288.431 47.5393 288.275 48.3339C288.12 49.1285 288.262 49.8243 288.593 49.888C288.924 49.9516 289.318 49.3591 289.473 48.5644Z" fill="#D9D9D9"/>
<path d="M291.354 55.1921C290.966 54.511 290.551 53.8066 289.897 53.3706C289.521 53.1418 289.117 52.9619 288.695 52.8354C287.27 52.341 285.823 51.8423 284.316 51.7635C284.07 51.7518 283.79 51.7635 283.629 51.9502C283.3 52.3337 283.822 52.8558 284.273 53.0877L287.863 54.9325L284.554 54.5854C284.073 54.5344 283.388 54.6642 283.424 55.1425C283.447 55.456 283.794 55.6267 284.094 55.7258C286.218 56.455 288.673 57.0267 289.835 58.9342C288.286 58.7884 286.703 58.6425 285.185 58.9809C284.769 59.0742 284.338 59.2186 284.066 59.5438C283.794 59.869 283.763 60.4188 284.106 60.6769C284.317 60.833 284.603 60.8373 284.867 60.8227C285.945 60.7717 287.05 60.5588 288.085 60.8636C289.119 61.1684 290.038 62.2446 289.681 63.2538C290.598 63.3355 291.683 63.2538 292.531 62.8615C293.466 62.424 293.444 61.6015 293.387 60.6098C293.265 58.6673 292.293 56.8546 291.354 55.1921Z" fill="#FBBEBE"/>
<path opacity="0.1" d="M290.426 86.9825C289.604 81.2436 288.475 75.552 287.045 69.9315C286.311 67.0148 285.476 64.0486 285.686 61.0473C288.723 61.4308 291.443 61.7152 294.242 60.4844C294.288 62.0608 295.44 63.4011 295.859 64.925C296.14 65.9459 296.034 67.0265 296.144 68.078C296.254 69.1294 296.585 70.1488 296.869 71.1711C298.276 76.237 298.608 81.5377 297.843 86.7375C295.246 87.0437 293.018 87.3806 290.426 86.9825Z" fill="black"/>
<path d="M289.985 86.9825C289.163 81.2436 288.034 75.552 286.604 69.9315C285.869 67.0148 285.035 64.0486 285.245 61.0473C288.282 61.4308 291.002 61.7152 293.801 60.4844C293.847 62.0608 294.999 63.4011 295.418 64.925C295.699 65.9459 295.593 67.0265 295.703 68.078C295.813 69.1294 296.144 70.1488 296.428 71.1711C297.835 76.237 298.167 81.5377 297.402 86.7375C294.805 87.0437 292.577 87.3806 289.985 86.9825Z" fill="#D9D9D9"/>
<path d="M247.497 115.388L248.936 79.9694C248.959 79.4064 249.202 78.8743 249.613 78.4861C250.025 78.0979 250.573 77.884 251.141 77.8898L307.955 78.4293C308.256 78.4324 308.553 78.4972 308.827 78.6196C309.102 78.7421 309.348 78.9195 309.55 79.1408C309.753 79.3621 309.906 79.6225 310.002 79.9056C310.098 80.1887 310.134 80.4885 310.108 80.786L307.106 114.717C307.059 115.251 306.815 115.748 306.42 116.113C306.025 116.479 305.508 116.686 304.968 116.695L249.718 117.643C249.42 117.648 249.125 117.592 248.85 117.48C248.575 117.368 248.326 117.201 248.118 116.99C247.91 116.779 247.747 116.528 247.641 116.253C247.534 115.977 247.485 115.683 247.497 115.388Z" fill="#3F3D56"/>
<path d="M279.227 96.9008C280.607 96.9008 281.726 95.5949 281.726 93.9841C281.726 92.3732 280.607 91.0674 279.227 91.0674C277.847 91.0674 276.728 92.3732 276.728 93.9841C276.728 95.5949 277.847 96.9008 279.227 96.9008Z" fill="#D9D9D9"/>
<path d="M332.657 91.9802L332.54 92.9806L330.629 109.148C325.647 112.594 321.773 109.282 321.739 109.148L319.331 92.9048L319.195 91.9802H332.657Z" fill="#3F3D56"/>
<path opacity="0.1" d="M332.657 91.9802L332.54 92.9806C326.928 96.2182 320.941 93.6982 319.331 92.9048L319.195 91.9802H332.657Z" fill="black"/>
<path d="M318.914 91.1023V92.5606C318.914 92.5606 326.337 96.8423 333.025 92.5606V91.1023H318.914Z" fill="#D9D9D9"/>
<path d="M319.777 89.1758C319.777 89.1758 319.561 90.1602 318.914 90.2463V91.4873H333.025V90.3746C333.025 90.3746 332.162 90.1602 332.29 89.1758H319.777Z" fill="#D9D9D9"/>
<path d="M325.927 91.1023C329.442 91.1023 332.291 90.2875 332.291 89.2823C332.291 88.2771 329.442 87.4623 325.927 87.4623C322.412 87.4623 319.562 88.2771 319.562 89.2823C319.562 90.2875 322.412 91.1023 325.927 91.1023Z" fill="#D9D9D9"/>
<path opacity="0.1" d="M325.927 91.1023C329.442 91.1023 332.291 90.2875 332.291 89.2823C332.291 88.2771 329.442 87.4623 325.927 87.4623C322.412 87.4623 319.562 88.2771 319.562 89.2823C319.562 90.2875 322.412 91.1023 325.927 91.1023Z" fill="black"/>
<path opacity="0.1" d="M331.514 89.1759C331.514 89.905 329.1 90.503 326.121 90.503H325.962C323.961 90.4884 322.233 90.2113 321.351 89.7971C320.953 89.6105 320.726 89.399 320.726 89.1759C320.726 88.8055 321.344 88.47 322.343 88.2294C323.585 87.96 324.854 87.8323 326.125 87.8488C329.1 87.8488 331.514 88.4423 331.514 89.1759Z" fill="black"/>
<path opacity="0.1" d="M325.962 90.503C323.961 90.4884 322.233 90.2113 321.351 89.7971L322.339 88.2236L325.962 90.503Z" fill="black"/>
<path opacity="0.1" d="M320.325 89.278C320.249 89.262 320.147 89.2882 320.132 89.3641C320.13 89.4027 320.141 89.4409 320.162 89.4734C320.33 89.7378 320.575 89.9456 320.864 90.0699C320.914 90.0975 320.968 90.1149 321.025 90.1209C321.054 90.1244 321.084 90.1191 321.11 90.1055C321.136 90.092 321.158 90.0709 321.172 90.0451C321.18 90.0231 321.183 89.9996 321.181 89.9762C321.18 89.9528 321.173 89.9301 321.161 89.9095C321.116 89.8306 321.054 89.7628 320.979 89.7111C320.782 89.558 320.581 89.3203 320.325 89.278Z" fill="black"/>
<path d="M326.141 104.866C328.238 104.866 329.938 103.18 329.938 101.099C329.938 99.0189 328.238 97.3324 326.141 97.3324C324.045 97.3324 322.345 99.0189 322.345 101.099C322.345 103.18 324.045 104.866 326.141 104.866Z" fill="#D9D9D9"/>
<path d="M222.759 101.108H224.539C225.513 101.108 226.448 101.492 227.137 102.176C227.826 102.86 228.213 103.787 228.213 104.754V110.172H219.084V104.754C219.084 103.787 219.471 102.86 220.16 102.176C220.849 101.492 221.784 101.108 222.759 101.108Z" fill="#3F3D56"/>
<path opacity="0.1" d="M222.759 101.108H224.539C225.513 101.108 226.448 101.492 227.137 102.176C227.826 102.86 228.213 103.787 228.213 104.754V110.172H219.084V104.754C219.084 103.787 219.471 102.86 220.16 102.176C220.849 101.492 221.784 101.108 222.759 101.108Z" fill="black"/>
<path d="M223.283 103.102C223.687 103.102 224.014 102.777 224.014 102.377C224.014 101.977 223.687 101.652 223.283 101.652C222.88 101.652 222.553 101.977 222.553 102.377C222.553 102.777 222.88 103.102 223.283 103.102Z" fill="#3F3D56"/>
<path d="M223.283 102.196C223.687 102.196 224.014 101.871 224.014 101.471C224.014 101.071 223.687 100.746 223.283 100.746C222.88 100.746 222.553 101.071 222.553 101.471C222.553 101.871 222.88 102.196 223.283 102.196Z" fill="#3F3D56"/>
<path d="M223.283 101.289C223.687 101.289 224.014 100.964 224.014 100.564C224.014 100.164 223.687 99.8392 223.283 99.8392C222.88 99.8392 222.553 100.164 222.553 100.564C222.553 100.964 222.88 101.289 223.283 101.289Z" fill="#3F3D56"/>
<path d="M223.283 100.383C223.687 100.383 224.014 100.059 224.014 99.6585C224.014 99.2582 223.687 98.9337 223.283 98.9337C222.88 98.9337 222.553 99.2582 222.553 99.6585C222.553 100.059 222.88 100.383 223.283 100.383Z" fill="#3F3D56"/>
<path d="M223.283 99.4776C223.687 99.4776 224.014 99.1531 224.014 98.7528C224.014 98.3525 223.687 98.028 223.283 98.028C222.88 98.028 222.553 98.3525 222.553 98.7528C222.553 99.1531 222.88 99.4776 223.283 99.4776Z" fill="#3F3D56"/>
<path d="M223.283 98.572C223.687 98.572 224.014 98.2475 224.014 97.8472C224.014 97.4469 223.687 97.1224 223.283 97.1224C222.88 97.1224 222.553 97.4469 222.553 97.8472C222.553 98.2475 222.88 98.572 223.283 98.572Z" fill="#3F3D56"/>
<path d="M223.283 97.6663C223.687 97.6663 224.014 97.3418 224.014 96.9415C224.014 96.5412 223.687 96.2167 223.283 96.2167C222.88 96.2167 222.553 96.5412 222.553 96.9415C222.553 97.3418 222.88 97.6663 223.283 97.6663Z" fill="#3F3D56"/>
<path d="M224.38 98.028C224.783 98.028 225.11 97.7035 225.11 97.3032C225.11 96.9029 224.783 96.5784 224.38 96.5784C223.976 96.5784 223.649 96.9029 223.649 97.3032C223.649 97.7035 223.976 98.028 224.38 98.028Z" fill="#3F3D56"/>
<path d="M225.11 97.6663C225.514 97.6663 225.841 97.3418 225.841 96.9415C225.841 96.5412 225.514 96.2167 225.11 96.2167C224.707 96.2167 224.38 96.5412 224.38 96.9415C224.38 97.3418 224.707 97.6663 225.11 97.6663Z" fill="#3F3D56"/>
<path d="M225.841 97.3032C226.244 97.3032 226.572 96.9787 226.572 96.5784C226.572 96.1781 226.244 95.8536 225.841 95.8536C225.438 95.8536 225.11 96.1781 225.11 96.5784C225.11 96.9787 225.438 97.3032 225.841 97.3032Z" fill="#3F3D56"/>
<path d="M223.283 96.7608C223.687 96.7608 224.014 96.4362 224.014 96.036C224.014 95.6357 223.687 95.3112 223.283 95.3112C222.88 95.3112 222.553 95.6357 222.553 96.036C222.553 96.4362 222.88 96.7608 223.283 96.7608Z" fill="#3F3D56"/>
<path d="M223.283 95.8551C223.687 95.8551 224.014 95.5306 224.014 95.1303C224.014 94.73 223.687 94.4055 223.283 94.4055C222.88 94.4055 222.553 94.73 222.553 95.1303C222.553 95.5306 222.88 95.8551 223.283 95.8551Z" fill="#3F3D56"/>
<path d="M223.283 94.948C223.687 94.948 224.014 94.6235 224.014 94.2232C224.014 93.8229 223.687 93.4984 223.283 93.4984C222.88 93.4984 222.553 93.8229 222.553 94.2232C222.553 94.6235 222.88 94.948 223.283 94.948Z" fill="#3F3D56"/>
<path d="M223.283 94.0424C223.687 94.0424 224.014 93.7179 224.014 93.3176C224.014 92.9173 223.687 92.5928 223.283 92.5928C222.88 92.5928 222.553 92.9173 222.553 93.3176C222.553 93.7179 222.88 94.0424 223.283 94.0424Z" fill="#3F3D56"/>
<path d="M226.311 90.9813C226.131 91.0075 225.948 91.0265 225.766 91.0381C225.936 90.8906 226.094 90.7296 226.238 90.5569C226.136 90.2525 225.987 89.9657 225.797 89.7067C225.616 89.8076 225.416 89.8702 225.209 89.8904C225.028 89.9167 224.846 89.9356 224.664 89.9488C224.903 89.7548 225.127 89.4631 225.362 89.2196C224.818 88.7306 224.118 88.4488 223.384 88.4242C222.651 88.3996 221.933 88.6338 221.357 89.0852C220.782 89.5366 220.386 90.1759 220.241 90.8894C220.096 91.6029 220.21 92.3444 220.564 92.982C220.918 93.6196 221.489 94.112 222.174 94.3715C222.86 94.6311 223.616 94.6411 224.308 94.3996C225 94.1582 225.583 93.681 225.954 93.053C226.325 92.4249 226.459 91.6867 226.333 90.9696L226.311 90.9813Z" fill="#D9D9D9"/>
<path d="M228.753 94.582C228.566 94.6955 228.356 94.7649 228.138 94.7847C227.958 94.8109 227.775 94.8313 227.593 94.843C227.787 94.6706 227.968 94.4844 228.134 94.2859C227.694 94.172 227.226 94.2251 226.823 94.435C226.42 94.6448 226.11 94.9962 225.955 95.4206C225.799 95.8449 225.808 96.3116 225.981 96.7295C226.153 97.1473 226.477 97.4863 226.888 97.6801C227.299 97.8739 227.768 97.9086 228.204 97.7773C228.639 97.6461 229.01 97.3585 229.243 96.9706C229.476 96.5827 229.555 96.1225 229.465 95.68C229.374 95.2374 229.12 94.8444 228.753 94.5776V94.582Z" fill="#D9D9D9"/>
<path d="M222.188 98.028C222.592 98.028 222.919 97.7035 222.919 97.3032C222.919 96.9029 222.592 96.5784 222.188 96.5784C221.785 96.5784 221.458 96.9029 221.458 97.3032C221.458 97.7035 221.785 98.028 222.188 98.028Z" fill="#3F3D56"/>
<path d="M221.458 97.6663C221.861 97.6663 222.188 97.3418 222.188 96.9415C222.188 96.5412 221.861 96.2167 221.458 96.2167C221.054 96.2167 220.727 96.5412 220.727 96.9415C220.727 97.3418 221.054 97.6663 221.458 97.6663Z" fill="#3F3D56"/>
<path d="M220.727 97.3032C221.131 97.3032 221.458 96.9787 221.458 96.5784C221.458 96.1781 221.131 95.8536 220.727 95.8536C220.324 95.8536 219.997 96.1781 219.997 96.5784C219.997 96.9787 220.324 97.3032 220.727 97.3032Z" fill="#3F3D56"/>
<path d="M217.815 94.582C218.002 94.6957 218.212 94.7651 218.43 94.7847C218.611 94.8109 218.793 94.8313 218.975 94.843C218.781 94.671 218.6 94.4848 218.434 94.2859C218.875 94.172 219.342 94.2251 219.745 94.435C220.148 94.6448 220.458 94.9962 220.614 95.4206C220.769 95.8449 220.76 96.3116 220.587 96.7295C220.415 97.1473 220.091 97.4863 219.68 97.6801C219.269 97.8739 218.8 97.9086 218.364 97.7773C217.929 97.6461 217.558 97.3585 217.325 96.9706C217.092 96.5827 217.013 96.1225 217.104 95.68C217.194 95.2374 217.448 94.8444 217.815 94.5776V94.582Z" fill="#D9D9D9"/>
<path d="M222.759 101.652H224.539C225.513 101.652 226.448 102.036 227.137 102.72C227.826 103.404 228.213 104.331 228.213 105.298V110.091C228.213 110.255 228.148 110.413 228.031 110.529C227.914 110.645 227.755 110.71 227.59 110.71H219.707C219.542 110.71 219.383 110.645 219.266 110.529C219.15 110.413 219.084 110.255 219.084 110.091V105.298C219.084 104.331 219.471 103.404 220.16 102.72C220.849 102.036 221.784 101.652 222.759 101.652Z" fill="#3F3D56"/>
<g opacity="0.1">
<path opacity="0.1" d="M226.366 91.1796C226.293 91.2578 226.215 91.3315 226.132 91.4006C226.216 91.4006 226.298 91.3875 226.381 91.3788C226.384 91.3119 226.374 91.245 226.366 91.1796Z" fill="black"/>
<path opacity="0.1" d="M225.036 90.3134C225.219 90.3017 225.4 90.2828 225.582 90.2565C225.746 90.236 225.906 90.1928 226.057 90.1282C225.983 89.9822 225.898 89.8423 225.801 89.7097C225.71 89.7649 225.611 89.8066 225.507 89.8336C225.363 90.0058 225.206 90.1662 225.036 90.3134Z" fill="black"/>
<path opacity="0.1" d="M220.545 91.8694C220.544 91.3165 220.693 90.7736 220.977 90.2978C221.261 89.8219 221.669 89.4309 222.158 89.1657C222.647 88.9006 223.199 88.7712 223.756 88.7912C224.313 88.8112 224.854 88.9799 225.322 89.2794L225.369 89.2298C225.064 88.96 224.707 88.7528 224.32 88.6202C223.934 88.4877 223.524 88.4324 223.116 88.4575C222.707 88.4826 222.308 88.5877 221.941 88.7666C221.573 88.9455 221.245 89.1948 220.976 89.5001C220.706 89.8054 220.5 90.1606 220.369 90.5453C220.238 90.9299 220.185 91.3365 220.214 91.7415C220.242 92.1465 220.351 92.542 220.534 92.9051C220.717 93.2682 220.97 93.5918 221.28 93.8572C220.805 93.3024 220.544 92.5976 220.545 91.8694Z" fill="black"/>
</g>
<g opacity="0.1">
<path opacity="0.1" d="M227.593 95.2047C227.775 95.193 227.958 95.174 228.138 95.1478C228.356 95.1274 228.567 95.0576 228.753 94.9436C228.959 95.0944 229.131 95.2866 229.258 95.5077C229.385 95.7288 229.463 95.9739 229.488 96.227C229.495 96.1635 229.498 96.0997 229.498 96.0359C229.499 95.7527 229.434 95.4731 229.306 95.2197C229.178 94.9664 228.992 94.7464 228.763 94.5776C228.577 94.6911 228.367 94.7605 228.149 94.7803L228.002 94.7992C227.876 94.9447 227.74 95.0802 227.593 95.2047Z" fill="black"/>
<path opacity="0.1" d="M227.667 94.5863C227.728 94.587 227.788 94.5914 227.849 94.5995C227.944 94.4988 228.038 94.3909 228.134 94.2859C227.864 94.2143 227.581 94.2054 227.306 94.2598C227.032 94.3142 226.774 94.4305 226.552 94.5997C226.331 94.7689 226.151 94.9864 226.028 95.2355C225.904 95.4845 225.84 95.7584 225.841 96.0359C225.841 96.0972 225.841 96.157 225.85 96.2168C225.895 95.7699 226.106 95.3556 226.442 95.0543C226.777 94.7531 227.214 94.5863 227.667 94.5863Z" fill="black"/>
</g>
<g opacity="0.1">
<path opacity="0.1" d="M218.975 95.2047C218.793 95.193 218.611 95.174 218.43 95.1478C218.212 95.1277 218.002 95.0578 217.815 94.9436C217.609 95.0944 217.437 95.2866 217.31 95.5077C217.184 95.7288 217.105 95.9739 217.08 96.227C217.073 96.1635 217.07 96.0997 217.07 96.0359C217.069 95.7527 217.135 95.4731 217.262 95.2197C217.39 94.9664 217.576 94.7464 217.805 94.5776C217.991 94.6913 218.202 94.7607 218.42 94.7803L218.567 94.7992C218.691 94.9454 218.828 95.081 218.975 95.2047Z" fill="black"/>
<path opacity="0.1" d="M218.902 94.5863C218.84 94.587 218.779 94.5914 218.718 94.5995C218.624 94.4988 218.53 94.3909 218.434 94.2859C218.705 94.2143 218.988 94.2054 219.262 94.2598C219.536 94.3142 219.794 94.4305 220.016 94.5997C220.238 94.7689 220.417 94.9864 220.541 95.2355C220.664 95.4845 220.728 95.7584 220.727 96.0359C220.727 96.0972 220.727 96.157 220.719 96.2168C220.673 95.7699 220.462 95.3556 220.127 95.0543C219.791 94.7531 219.354 94.5863 218.902 94.5863Z" fill="black"/>
</g>
</g>
<defs>
<clipPath id="clip0_0_326">
<rect width="168.155" height="92.8966" fill="white" transform="translate(195.076 25.8793)"/>
</clipPath>
</defs>
</svg>
